<svg width="22" height="22" viewBox="0 0 22 22" fill="none" xmlns="http://www.w3.org/2000/svg">
<g clip-path="url(#clip0_19_2484)">
<g clip-path="url(#clip1_19_2484)">
<path d="M11.1572 1.14453C5.64723 1.14453 1.15723 5.63453 1.15723 11.1445C1.15723 16.6545 5.64723 21.1445 11.1572 21.1445C16.6672 21.1445 21.1572 16.6545 21.1572 11.1445C21.1572 5.63453 16.6672 1.14453 11.1572 1.14453ZM15.9372 8.84453L10.2672 14.5145C10.1272 14.6545 9.93723 14.7345 9.73723 14.7345C9.53723 14.7345 9.34723 14.6545 9.20723 14.5145L6.37723 11.6845C6.08723 11.3945 6.08723 10.9145 6.37723 10.6245C6.66723 10.3345 7.14723 10.3345 7.43723 10.6245L9.73723 12.9245L14.8772 7.78453C15.1672 7.49453 15.6472 7.49453 15.9372 7.78453C16.2272 8.07453 16.2272 8.54453 15.9372 8.84453Z" fill="#2AB479"/>
</g>
</g>
<defs>
<clipPath id="clip0_19_2484">
<rect width="21" height="21" fill="white" transform="translate(1 1)"/>
</clipPath>
<clipPath id="clip1_19_2484">
<rect width="21" height="21" fill="white" transform="translate(1 1)"/>
</clipPath>
</defs>
</svg>
