<svg width="439" height="423" viewBox="0 0 439 423" fill="none" xmlns="http://www.w3.org/2000/svg">
<path opacity="0.7" d="M382.111 383.247C358.199 420.023 262.09 433.753 167.446 413.914C72.8027 394.076 15.4637 348.181 39.376 311.406C63.2883 274.63 159.397 260.899 254.041 280.737C348.685 300.576 406.024 346.47 382.111 383.247Z" fill="url(#paint0_radial_19_2538)"/>
<path d="M387.089 332.831V327.436L173.747 221.35L34.5339 290.704V296.095C34.5339 299.982 36.7416 303.535 40.2354 305.272L247.876 408.522L381.396 342.004C384.885 340.266 387.089 336.715 387.089 332.831Z" fill="#ECECEC"/>
<path d="M247.95 397.849L387.028 328.062V332.48C387.028 336.354 384.835 339.897 381.36 341.642L247.95 408.585V397.849Z" fill="#C8C8C8"/>
<path d="M248.17 397.849L34.4152 290.902V295.312C34.4152 299.191 36.6127 302.736 40.0943 304.479L248.17 408.585V397.849Z" fill="#DBDBDB"/>
<path d="M360.111 325.015L362.387 323.928L188.418 238.658L67.9117 296.198L70.1874 297.314L188.418 240.86L360.111 325.015Z" fill="#00954C"/>
<path d="M360.111 325.015L188.418 240.86L70.1874 297.314L241.88 381.467L360.111 325.015Z" fill="url(#paint1_linear_19_2538)"/>
<path d="M353.019 334.448C353.228 334.349 353.472 334.354 353.676 334.464L357.227 336.355C357.266 336.377 357.283 336.415 357.316 336.442C357.71 336.132 357.702 335.508 357.227 335.254L353.676 333.362C353.472 333.253 353.228 333.248 353.019 333.347L272.996 371.352C272.498 371.589 272.466 372.238 272.877 372.559C272.919 372.525 272.944 372.478 272.996 372.453L353.019 334.448Z" fill="#707A84"/>
<path d="M276.516 374.537C276.72 374.647 276.964 374.652 277.173 374.553L357.196 336.547C357.249 336.522 357.274 336.476 357.316 336.442C357.283 336.416 357.268 336.377 357.227 336.355L353.676 334.464C353.472 334.354 353.228 334.349 353.019 334.448L272.996 372.452C272.943 372.478 272.919 372.524 272.877 372.558C272.911 372.584 272.926 372.623 272.966 372.645L276.516 374.537Z" fill="#959CA3"/>
<path d="M204.595 383.35L186.344 374.495C185.955 374.306 185.707 373.913 185.707 373.481V370.971C185.707 370.137 186.583 369.592 187.337 369.957L205.589 378.812C205.978 379.001 206.226 379.395 206.226 379.827V382.337C206.226 383.169 205.348 383.715 204.595 383.35Z" fill="#848484"/>
<path d="M203.869 383.775L185.617 374.92C185.228 374.731 184.98 374.337 184.98 373.906V371.395C184.98 370.562 185.857 370.016 186.611 370.381L204.862 379.236C205.252 379.425 205.499 379.818 205.499 380.25V382.761C205.498 383.595 204.622 384.141 203.869 383.775Z" fill="#A9A9A9"/>
<path d="M181.399 372.235L161.716 362.685C161.296 362.481 161.029 362.058 161.029 361.591V358.885C161.029 357.986 161.975 357.397 162.787 357.791L182.47 367.341C182.891 367.545 183.157 367.969 183.157 368.435V371.141C183.157 372.041 182.211 372.63 181.399 372.235Z" fill="#848484"/>
<path d="M180.615 372.694L160.932 363.144C160.511 362.94 160.245 362.517 160.245 362.05V359.344C160.245 358.445 161.191 357.856 162.003 358.25L181.686 367.799C182.106 368.004 182.372 368.427 182.372 368.893V371.6C182.373 372.5 181.426 373.089 180.615 372.694Z" fill="#A9A9A9"/>
<path d="M122.577 265.273C128.534 265.273 133.364 262.962 133.364 260.112C133.364 257.261 128.534 254.95 122.577 254.95C116.619 254.95 111.789 257.261 111.789 260.112C111.789 262.962 116.619 265.273 122.577 265.273Z" fill="#B9C2C6"/>
<path d="M122.577 264.571C127.724 264.571 131.896 262.574 131.896 260.112C131.896 257.649 127.724 255.653 122.577 255.653C117.43 255.653 113.258 257.649 113.258 260.112C113.258 262.574 117.43 264.571 122.577 264.571Z" fill="#DFE3E5"/>
<path d="M277.884 94.1787L267.182 86.282C266.811 86.008 266.361 85.8594 265.898 85.8594H209.65C208.46 85.8594 207.494 84.8988 207.494 83.7128V57.1978C207.494 56.0128 208.459 55.0513 209.65 55.0513H279.17C280.36 55.0513 281.326 56.0118 281.326 57.1978V92.4548C281.325 94.2181 279.308 95.2292 277.884 94.1787Z" fill="#EDFFD0"/>
<path d="M235.789 71.2349C235.789 72.6929 234.601 73.8749 233.136 73.8749C231.67 73.8749 230.482 72.6929 230.482 71.2349C230.482 69.7769 231.67 68.595 233.136 68.595C234.601 68.595 235.789 69.7769 235.789 71.2349Z" fill="#687472"/>
<path d="M247.726 71.2349C247.726 72.6929 246.538 73.8749 245.073 73.8749C243.608 73.8749 242.42 72.6929 242.42 71.2349C242.42 69.7769 243.608 68.595 245.073 68.595C246.538 68.595 247.726 69.7769 247.726 71.2349Z" fill="#687472"/>
<path d="M259.663 71.2349C259.663 72.6929 258.476 73.8749 257.01 73.8749C255.545 73.8749 254.357 72.6929 254.357 71.2349C254.357 69.7769 255.545 68.595 257.01 68.595C258.476 68.595 259.663 69.7769 259.663 71.2349Z" fill="#687472"/>
<path d="M292.5 357.856C326.933 357.856 354.847 347.011 354.847 333.632C354.847 320.253 326.933 309.407 292.5 309.407C258.067 309.407 230.154 320.253 230.154 333.632C230.154 347.011 258.067 357.856 292.5 357.856Z" fill="url(#paint2_radial_19_2538)"/>
<path opacity="0.6" d="M119.534 315.922C153.967 315.922 181.881 305.076 181.881 291.697C181.881 278.318 153.967 267.472 119.534 267.472C85.101 267.472 57.1875 278.318 57.1875 291.697C57.1875 305.076 85.101 315.922 119.534 315.922Z" fill="url(#paint3_radial_19_2538)"/>
<path d="M191.765 256L106.952 297.507C106.398 297.778 105.749 297.775 105.197 297.499L42.1235 265.942C40.6697 265.214 40.6788 263.145 42.1387 262.43L126.952 220.924C127.506 220.653 128.155 220.656 128.706 220.932L191.78 252.49C193.235 253.216 193.226 255.286 191.765 256Z" fill="#CBCAC2"/>
<path d="M192.858 251.212H190.222V254.322H192.858V251.212Z" fill="#C3CA9C"/>
<path d="M43.6667 261.165H41.0308V264.275H43.6667V261.165Z" fill="#C3CA9C"/>
<path d="M191.766 253.064L106.952 294.571C106.399 294.842 105.75 294.839 105.198 294.563L42.1239 263.004C40.6701 262.276 40.6793 260.208 42.1392 259.493L126.952 217.986C127.506 217.715 128.155 217.718 128.707 217.994L191.781 249.553C193.236 250.28 193.227 252.349 191.766 253.064Z" fill="#F8FFEC"/>
<path opacity="0.3" d="M161.946 241.964L123.038 260.775L118.889 258.848L157.796 240.037L161.946 241.964Z" fill="#687472"/>
<path opacity="0.3" d="M171.165 246.185L96.0229 282.338L91.8748 280.411L167.017 244.259L171.165 246.185Z" fill="#687472"/>
<path opacity="0.3" d="M180.017 250.222L104.875 286.376L100.726 284.449L175.868 248.296L180.017 250.222Z" fill="#687472"/>
<path d="M71.4018 254.713L71.9912 255.023L70.628 255.67L65.4945 252.966L66.1615 252.649L70.7058 255.043L71.4018 254.713ZM65.6638 254.03L66.1537 254.288L67.0595 257.313L66.2692 257.688L62.8894 255.908L62.1643 256.252L61.6034 255.956L62.3285 255.612L61.1853 255.01L61.8379 254.701L62.981 255.303L65.6638 254.03ZM66.2182 257.037L65.4634 254.687L63.513 255.612L66.2182 257.037ZM59.4395 255.796C59.5652 255.736 59.7141 255.708 59.8863 255.712C60.0585 255.716 60.2062 255.75 60.3293 255.815C60.4523 255.879 60.513 255.955 60.5112 256.041C60.5094 256.127 60.4456 256.2 60.3199 256.26C60.1991 256.317 60.055 256.343 59.8876 256.337C59.7154 256.333 59.5677 256.299 59.4447 256.234C59.3216 256.169 59.261 256.094 59.2628 256.008C59.2597 255.924 59.3186 255.853 59.4395 255.796ZM62.4784 257.397C62.6041 257.337 62.7531 257.309 62.9253 257.313C63.0975 257.316 63.2451 257.351 63.3682 257.415C63.4913 257.48 63.5519 257.556 63.5501 257.642C63.5483 257.728 63.4846 257.801 63.3589 257.861C63.238 257.918 63.0939 257.944 62.9266 257.938C62.7543 257.934 62.6067 257.9 62.4836 257.835C62.3606 257.77 62.2999 257.695 62.3017 257.609C62.2987 257.525 62.3576 257.454 62.4784 257.397ZM60.8776 257.78C61.6917 258.208 62.1907 258.607 62.3744 258.975C62.5629 259.345 62.3188 259.691 61.642 260.012C60.9701 260.33 60.2693 260.433 59.5394 260.32C58.8143 260.209 58.0447 259.939 57.2305 259.51C56.4021 259.073 55.8937 258.67 55.7052 258.3C55.5168 257.93 55.7585 257.585 56.4304 257.266C57.1071 256.945 57.8104 256.841 58.5402 256.955C59.2701 257.068 60.0492 257.343 60.8776 257.78ZM57.883 259.2C58.2949 259.417 58.6718 259.587 59.0138 259.709C59.3557 259.836 59.7013 259.904 60.0504 259.914C60.3947 259.926 60.7288 259.855 61.0527 259.701C61.3814 259.545 61.5452 259.38 61.5441 259.205C61.5381 259.033 61.4197 258.856 61.189 258.677C60.9582 258.502 60.6368 258.306 60.225 258.089C59.799 257.865 59.415 257.689 59.0731 257.562C58.7263 257.438 58.3808 257.369 58.0365 257.357C57.6873 257.348 57.3484 257.421 57.0197 257.577C56.6958 257.73 56.5369 257.893 56.5428 258.066C56.544 258.241 56.6623 258.417 56.8979 258.594C57.1286 258.774 57.457 258.976 57.883 259.2ZM57.5604 260.576C57.9621 260.822 58.1313 261.082 58.0681 261.359C58.0049 261.635 57.7267 261.891 57.2337 262.124C56.905 262.28 56.5631 262.383 56.2079 262.433C55.8526 262.488 55.5151 262.492 55.1954 262.445C54.8709 262.399 54.5833 262.311 54.3324 262.179C54.0389 262.024 53.8727 261.849 53.8337 261.655C53.7898 261.462 53.8749 261.284 54.0889 261.121L54.0534 261.102C53.6635 261.212 53.2654 261.251 52.8593 261.221C52.4531 261.191 52.0701 261.081 51.7104 260.892C51.4406 260.75 51.2596 260.591 51.1676 260.417C51.0802 260.245 51.1007 260.067 51.229 259.883C51.3573 259.699 51.5979 259.523 51.9507 259.356C52.4631 259.113 53.0138 258.982 53.6029 258.963C54.1966 258.947 54.7543 259.057 55.2758 259.293L54.6377 259.595C54.3199 259.462 53.9695 259.396 53.5866 259.397C53.2037 259.399 52.8431 259.48 52.5047 259.641C52.1663 259.801 51.9953 259.968 51.9917 260.14C51.988 260.317 52.1235 260.478 52.398 260.622C52.753 260.809 53.1295 260.887 53.5274 260.854C53.9253 260.822 54.3683 260.69 54.8565 260.458L55.0233 260.379L55.5629 260.664L55.3889 260.746C54.9489 260.96 54.684 261.156 54.5941 261.336C54.5089 261.519 54.6131 261.688 54.9065 261.842C55.1574 261.974 55.4432 262.04 55.7638 262.04C56.0797 262.042 56.3923 261.969 56.7016 261.822C57.0013 261.68 57.1673 261.526 57.1995 261.359C57.2317 261.192 57.1369 261.033 56.9151 260.882L57.5604 260.576Z" fill="#6D6D6D"/>
<path d="M358.186 300.779L273.373 342.285C272.819 342.556 272.17 342.553 271.618 342.277L208.544 310.719C207.09 309.991 207.099 307.922 208.559 307.207L293.372 265.701C293.926 265.43 294.575 265.433 295.127 265.709L358.201 297.267C359.655 297.994 359.646 300.064 358.186 300.779Z" fill="#C3CA9C"/>
<path d="M359.278 295.99H356.642V299.1H359.278V295.99Z" fill="#C3CA9C"/>
<path d="M210.086 305.943H207.45V309.054H210.086V305.943Z" fill="#C3CA9C"/>
<path d="M358.187 297.843L273.373 339.349C272.82 339.62 272.17 339.617 271.619 339.341L208.545 307.783C207.091 307.055 207.1 304.986 208.56 304.271L293.373 262.765C293.927 262.494 294.576 262.497 295.128 262.773L358.202 294.331C359.656 295.058 359.646 297.128 358.187 297.843Z" fill="#EDFFD0"/>
<path opacity="0.3" d="M300.705 271.878L225.563 308.03L221.414 306.103L296.556 269.95L300.705 271.878Z" fill="#687472"/>
<path opacity="0.3" d="M309.925 276.099L234.783 312.252L230.635 310.325L305.776 274.172L309.925 276.099Z" fill="#687472"/>
<path opacity="0.3" d="M318.776 280.136L243.634 316.289L239.486 314.362L314.628 278.209L318.776 280.136Z" fill="#687472"/>
<path opacity="0.3" d="M288.167 302.709L251.748 320.143L247.599 318.216L284.018 300.782L288.167 302.709Z" fill="#687472"/>
<path d="M330.781 299.937L330.191 299.626L331.554 298.98L336.688 301.684L336.021 302L331.477 299.607L330.781 299.937ZM336.519 300.62L336.029 300.362L335.123 297.336L335.913 296.962L339.293 298.742L340.018 298.398L340.579 298.693L339.854 299.037L340.997 299.64L340.345 299.949L339.201 299.347L336.519 300.62ZM335.964 297.613L336.719 299.963L338.67 299.038L335.964 297.613ZM342.743 298.854C342.617 298.914 342.468 298.942 342.296 298.938C342.124 298.934 341.976 298.9 341.853 298.835C341.73 298.771 341.67 298.695 341.671 298.609C341.673 298.523 341.737 298.45 341.863 298.39C341.983 298.333 342.128 298.307 342.295 298.313C342.467 298.317 342.615 298.351 342.738 298.416C342.861 298.481 342.922 298.556 342.92 298.642C342.923 298.726 342.864 298.797 342.743 298.854ZM339.704 297.253C339.578 297.313 339.429 297.341 339.257 297.337C339.085 297.334 338.937 297.299 338.814 297.234C338.691 297.17 338.631 297.094 338.632 297.008C338.634 296.922 338.698 296.849 338.824 296.789C338.944 296.732 339.089 296.706 339.256 296.712C339.428 296.716 339.576 296.75 339.699 296.815C339.822 296.88 339.883 296.955 339.881 297.041C339.884 297.125 339.825 297.196 339.704 297.253ZM341.305 296.87C340.491 296.441 339.992 296.043 339.808 295.675C339.62 295.305 339.864 294.959 340.54 294.638C341.212 294.32 341.913 294.217 342.643 294.33C343.368 294.441 344.138 294.711 344.952 295.14C345.78 295.576 346.289 295.98 346.477 296.35C346.666 296.72 346.424 297.065 345.752 297.384C345.075 297.705 344.372 297.809 343.642 297.695C342.912 297.582 342.133 297.307 341.305 296.87ZM344.299 295.45C343.888 295.233 343.511 295.063 343.169 294.941C342.827 294.814 342.481 294.746 342.132 294.736C341.788 294.724 341.454 294.795 341.13 294.949C340.801 295.105 340.637 295.27 340.638 295.445C340.644 295.617 340.763 295.793 340.993 295.973C341.224 296.148 341.546 296.344 341.957 296.561C342.384 296.785 342.767 296.961 343.109 297.088C343.456 297.212 343.802 297.281 344.146 297.293C344.495 297.302 344.834 297.229 345.163 297.073C345.487 296.92 345.646 296.756 345.64 296.584C345.639 296.409 345.52 296.233 345.285 296.056C345.054 295.876 344.725 295.674 344.299 295.45ZM343.76 293.779L343.17 293.469L344.533 292.822L349.667 295.526L349 295.843L344.456 293.449L343.76 293.779Z" fill="#6D6D6D"/>
<mask id="mask0_19_2538" style="mask-type:luminance" maskUnits="userSpaceOnUse" x="207" y="262" width="153" height="78">
<path d="M358.186 297.843L273.373 339.349C272.819 339.62 272.17 339.617 271.619 339.341L208.545 307.783C207.091 307.055 207.1 304.986 208.56 304.271L293.373 262.765C293.927 262.494 294.576 262.497 295.128 262.773L358.202 294.331C359.655 295.058 359.646 297.128 358.186 297.843Z" fill="white"/>
</mask>
<g mask="url(#mask0_19_2538)">
<path opacity="0.4" d="M312.968 295.093C347.401 295.093 375.315 284.248 375.315 270.869C375.315 257.49 347.401 246.644 312.968 246.644C278.535 246.644 250.621 257.49 250.621 270.869C250.621 284.248 278.535 295.093 312.968 295.093Z" fill="url(#paint4_radial_19_2538)"/>
</g>
<path d="M324.069 229.613L239.169 270.945C238.614 271.215 237.965 271.211 237.414 270.934L208.539 256.539C207.086 255.808 207.1 253.739 208.563 253.027L293.463 211.696C294.018 211.426 294.667 211.431 295.218 211.708L324.093 226.103C325.546 226.833 325.531 228.901 324.069 229.613Z" fill="#C3CA9C"/>
<path d="M325.168 224.835L322.533 224.829L322.526 227.939L325.162 227.945L325.168 224.835Z" fill="#C3CA9C"/>
<path d="M210.087 251.77L207.451 251.765L207.445 254.875L210.081 254.88L210.087 251.77Z" fill="#C3CA9C"/>
<path d="M324.076 226.677L239.175 268.007C238.62 268.277 237.971 268.273 237.421 267.996L208.545 253.601C207.093 252.87 207.106 250.802 208.569 250.09L293.469 208.759C294.024 208.489 294.673 208.493 295.224 208.77L324.099 223.165C325.552 223.896 325.538 225.965 324.076 226.677Z" fill="#EDFFD0"/>
<path opacity="0.3" d="M300.783 217.887L225.565 253.884L221.42 251.949L296.638 215.951L300.783 217.887Z" fill="#687472"/>
<path opacity="0.3" d="M269.758 239.845L233.304 257.204L229.159 255.268L265.614 237.909L269.758 239.845Z" fill="#687472"/>
<path d="M298.144 230L297.555 229.689L298.918 229.043L304.052 231.747L303.384 232.063L298.84 229.67L298.144 230ZM303.882 230.683L303.392 230.425L302.487 227.399L303.277 227.025L306.657 228.805L307.382 228.461L307.943 228.756L307.218 229.1L308.361 229.703L307.708 230.012L306.565 229.41L303.882 230.683ZM303.328 227.676L304.083 230.026L306.033 229.101L303.328 227.676ZM310.107 228.917C309.981 228.977 309.832 229.005 309.66 229.001C309.487 228.997 309.34 228.963 309.217 228.898C309.094 228.834 309.033 228.758 309.035 228.672C309.037 228.586 309.1 228.513 309.226 228.453C309.347 228.396 309.491 228.37 309.658 228.376C309.831 228.38 309.978 228.414 310.101 228.479C310.224 228.543 310.285 228.619 310.283 228.705C310.286 228.789 310.227 228.86 310.107 228.917ZM307.068 227.316C306.942 227.376 306.793 227.404 306.621 227.4C306.449 227.397 306.301 227.362 306.178 227.297C306.055 227.233 305.994 227.157 305.996 227.071C305.998 226.985 306.061 226.912 306.187 226.852C306.308 226.795 306.452 226.769 306.619 226.775C306.792 226.779 306.939 226.813 307.062 226.878C307.185 226.943 307.246 227.018 307.244 227.104C307.247 227.188 307.188 227.259 307.068 227.316ZM308.668 226.933C307.854 226.504 307.355 226.106 307.172 225.738C306.983 225.368 307.227 225.022 307.904 224.701C308.576 224.382 309.277 224.28 310.007 224.393C310.732 224.504 311.501 224.774 312.316 225.203C313.144 225.639 313.652 226.043 313.841 226.413C314.029 226.783 313.788 227.128 313.116 227.447C312.439 227.768 311.736 227.872 311.006 227.758C310.276 227.645 309.497 227.37 308.668 226.933ZM311.663 225.513C311.251 225.296 310.874 225.126 310.532 225.004C310.19 224.877 309.845 224.809 309.496 224.799C309.151 224.787 308.817 224.858 308.493 225.012C308.165 225.168 308.001 225.333 308.002 225.508C308.008 225.68 308.126 225.856 308.357 226.036C308.588 226.211 308.909 226.407 309.321 226.624C309.747 226.848 310.131 227.024 310.473 227.151C310.82 227.275 311.165 227.344 311.51 227.356C311.859 227.365 312.198 227.292 312.526 227.136C312.85 226.983 313.009 226.819 313.003 226.647C313.002 226.472 312.884 226.296 312.648 226.119C312.417 225.939 312.089 225.737 311.663 225.513ZM314.851 222.706C314.219 222.48 313.626 222.499 313.07 222.762C312.639 222.966 312.481 223.205 312.595 223.478C312.704 223.748 313.133 224.078 313.881 224.467C313.746 224.285 313.738 224.097 313.857 223.903C313.976 223.704 314.195 223.529 314.514 223.378C315.012 223.142 315.56 223.034 316.158 223.053C316.76 223.071 317.329 223.22 317.864 223.502C318.186 223.672 318.409 223.855 318.534 224.051C318.664 224.245 318.674 224.444 318.565 224.648C318.46 224.849 318.224 225.037 317.857 225.212C317.359 225.448 316.861 225.575 316.363 225.593C315.865 225.612 315.368 225.546 314.874 225.397C314.379 225.248 313.85 225.025 313.287 224.728C311.55 223.813 311.3 223.062 312.537 222.475C313.011 222.25 313.509 222.139 314.03 222.143C314.552 222.147 315.028 222.238 315.46 222.417L314.851 222.706ZM314.923 223.731C314.715 223.83 314.562 223.945 314.463 224.077C314.36 224.207 314.336 224.344 314.39 224.489C314.445 224.629 314.593 224.762 314.834 224.89C315.194 225.079 315.594 225.183 316.034 225.202C316.469 225.218 316.885 225.133 317.281 224.944C317.619 224.784 317.786 224.603 317.78 224.402C317.775 224.196 317.597 224 317.247 223.816C316.878 223.621 316.492 223.515 316.091 223.497C315.684 223.477 315.295 223.555 314.923 223.731Z" fill="#6D6D6D"/>
<mask id="mask1_19_2538" style="mask-type:luminance" maskUnits="userSpaceOnUse" x="207" y="208" width="118" height="61">
<path d="M323.707 226.677L238.806 268.007C238.251 268.277 237.602 268.273 237.052 267.996L208.176 253.601C206.724 252.87 206.737 250.802 208.2 250.09L293.1 208.759C293.655 208.489 294.304 208.493 294.855 208.77L323.73 223.165C325.183 223.896 325.17 225.965 323.707 226.677Z" fill="white"/>
</mask>
<g mask="url(#mask1_19_2538)">
<path opacity="0.4" d="M314.812 240.756C349.245 240.756 377.158 229.911 377.158 216.531C377.158 203.152 349.245 192.307 314.812 192.307C280.379 192.307 252.465 203.152 252.465 216.531C252.465 229.911 280.379 240.756 314.812 240.756Z" fill="url(#paint5_radial_19_2538)"/>
</g>
<path d="M358.186 168.597L273.373 210.104C272.819 210.375 272.17 210.372 271.618 210.096L208.544 178.537C207.09 177.809 207.099 175.741 208.559 175.026L293.372 133.519C293.926 133.248 294.575 133.251 295.127 133.527L358.201 165.086C359.655 165.814 359.646 167.882 358.186 168.597Z" fill="#C3CA9C"/>
<path d="M359.278 163.809H356.642V166.919H359.278V163.809Z" fill="#C3CA9C"/>
<path d="M210.086 173.762H207.45V176.872H210.086V173.762Z" fill="#C3CA9C"/>
<path d="M358.187 165.661L273.373 207.168C272.82 207.439 272.17 207.436 271.619 207.16L208.545 175.601C207.091 174.873 207.1 172.805 208.56 172.09L293.373 130.583C293.927 130.312 294.576 130.315 295.128 130.591L358.202 162.15C359.656 162.877 359.646 164.946 358.187 165.661Z" fill="#EDFFD0"/>
<path opacity="0.3" d="M300.705 139.696L225.563 175.85L221.414 173.923L296.556 137.769L300.705 139.696Z" fill="#687472"/>
<path opacity="0.3" d="M309.925 143.917L234.783 180.07L230.635 178.143L305.776 141.99L309.925 143.917Z" fill="#687472"/>
<path opacity="0.3" d="M318.776 147.955L243.634 184.107L239.486 182.18L314.628 146.028L318.776 147.955Z" fill="#687472"/>
<path opacity="0.3" d="M288.167 170.527L251.748 187.962L247.599 186.035L284.018 168.6L288.167 170.527Z" fill="#687472"/>
<path d="M328.57 168.031L327.981 167.72L329.344 167.074L334.478 169.778L333.81 170.094L329.266 167.701L328.57 168.031ZM334.308 168.714L333.818 168.456L332.912 165.43L333.703 165.056L337.083 166.836L337.808 166.492L338.369 166.787L337.644 167.131L338.787 167.734L338.134 168.043L336.991 167.441L334.308 168.714ZM333.754 165.707L334.509 168.057L336.459 167.132L333.754 165.707ZM340.532 166.948C340.407 167.008 340.258 167.036 340.086 167.032C339.913 167.028 339.766 166.994 339.643 166.929C339.52 166.865 339.459 166.789 339.461 166.703C339.463 166.617 339.526 166.544 339.652 166.484C339.773 166.427 339.917 166.401 340.084 166.407C340.257 166.411 340.404 166.445 340.527 166.51C340.65 166.574 340.711 166.65 340.709 166.736C340.712 166.82 340.653 166.891 340.532 166.948ZM337.494 165.347C337.368 165.407 337.219 165.435 337.047 165.431C336.874 165.428 336.727 165.393 336.604 165.328C336.481 165.264 336.42 165.188 336.422 165.102C336.424 165.016 336.487 164.943 336.613 164.883C336.734 164.826 336.878 164.8 337.045 164.806C337.218 164.81 337.365 164.844 337.488 164.909C337.611 164.974 337.672 165.049 337.67 165.135C337.673 165.219 337.614 165.29 337.494 165.347ZM339.094 164.964C338.28 164.535 337.781 164.137 337.598 163.769C337.409 163.399 337.653 163.053 338.33 162.732C339.002 162.414 339.703 162.311 340.433 162.424C341.158 162.535 341.927 162.805 342.742 163.234C343.57 163.67 344.078 164.074 344.267 164.444C344.455 164.814 344.214 165.159 343.542 165.478C342.865 165.799 342.162 165.903 341.432 165.789C340.702 165.676 339.923 165.401 339.094 164.964ZM342.089 163.544C341.677 163.327 341.3 163.157 340.958 163.035C340.616 162.908 340.271 162.84 339.922 162.83C339.577 162.818 339.243 162.889 338.919 163.043C338.591 163.199 338.427 163.364 338.428 163.539C338.434 163.711 338.552 163.887 338.783 164.067C339.014 164.242 339.335 164.438 339.747 164.655C340.173 164.879 340.557 165.055 340.899 165.182C341.246 165.306 341.591 165.375 341.936 165.387C342.285 165.396 342.624 165.323 342.952 165.167C343.276 165.014 343.435 164.85 343.429 164.678C343.428 164.503 343.31 164.327 343.074 164.15C342.843 163.97 342.515 163.768 342.089 163.544ZM344.864 160.215L347.478 163.61L346.811 163.926L344.29 160.551L341.492 161.879L340.938 161.587L344.375 159.957L344.864 160.215Z" fill="#6D6D6D"/>
<mask id="mask2_19_2538" style="mask-type:luminance" maskUnits="userSpaceOnUse" x="41" y="217" width="152" height="78">
<path d="M191.766 252.788L106.953 294.295C106.399 294.566 105.75 294.563 105.198 294.287L42.1242 262.728C40.6704 262 40.6795 259.932 42.1394 259.217L126.953 217.71C127.506 217.439 128.155 217.442 128.707 217.718L191.781 249.277C193.236 250.005 193.227 252.073 191.766 252.788Z" fill="white"/>
</mask>
<g mask="url(#mask2_19_2538)">
<path opacity="0.6" d="M119.534 255.362C153.967 255.362 181.881 244.516 181.881 231.137C181.881 217.758 153.967 206.912 119.534 206.912C85.101 206.912 57.1875 217.758 57.1875 231.137C57.1875 244.516 85.101 255.362 119.534 255.362Z" fill="url(#paint6_radial_19_2538)"/>
</g>
<path d="M184.021 183.841L99.2081 225.347C98.6544 225.618 98.0052 225.615 97.4536 225.339L59.5039 205.822C58.0501 205.094 58.0592 203.025 59.5192 202.31L144.332 160.804C144.886 160.533 145.535 160.536 146.087 160.812L184.037 180.329C185.491 181.056 185.482 183.126 184.021 183.841Z" fill="#CBCAC2"/>
<path d="M185.114 179.052H182.478V182.162H185.114V179.052Z" fill="#C3CA9C"/>
<path d="M61.0467 201.046H58.4108V204.157H61.0467V201.046Z" fill="#C3CA9C"/>
<path d="M184.021 180.903L99.2082 222.41C98.6545 222.681 98.0053 222.678 97.4536 222.402L59.504 202.886C58.0502 202.158 58.0593 200.089 59.5192 199.374L144.332 157.868C144.886 157.597 145.535 157.6 146.087 157.876L184.037 177.392C185.491 178.12 185.482 180.189 184.021 180.903Z" fill="#F8FFEC"/>
<path opacity="0.3" d="M168.578 176.432L129.67 195.244L125.521 193.317L164.428 174.506L168.578 176.432Z" fill="#687472"/>
<path d="M88.7834 194.594L89.3727 194.905L88.0096 195.551L82.876 192.847L83.5431 192.531L88.0873 194.924L88.7834 194.594ZM83.0453 193.911L83.5352 194.169L84.441 197.195L83.6507 197.569L80.2709 195.789L79.5459 196.133L78.9849 195.838L79.71 195.494L78.5668 194.891L79.2194 194.582L80.3626 195.184L83.0453 193.911ZM83.5997 196.918L82.8449 194.568L80.8945 195.493L83.5997 196.918ZM76.821 195.677C76.9467 195.617 77.0956 195.589 77.2679 195.593C77.4401 195.597 77.5877 195.631 77.7108 195.696C77.8339 195.76 77.8945 195.836 77.8927 195.922C77.8909 196.008 77.8271 196.081 77.7015 196.141C77.5806 196.198 77.4365 196.224 77.2691 196.218C77.0969 196.214 76.9493 196.18 76.8262 196.115C76.7031 196.051 76.6425 195.975 76.6443 195.889C76.6413 195.805 76.7002 195.734 76.821 195.677ZM79.86 197.278C79.9857 197.218 80.1346 197.19 80.3068 197.194C80.479 197.197 80.6267 197.232 80.7497 197.297C80.8728 197.361 80.9334 197.437 80.9316 197.523C80.9298 197.609 80.8661 197.682 80.7404 197.742C80.6196 197.799 80.4755 197.825 80.3081 197.819C80.1359 197.815 79.9882 197.781 79.8652 197.716C79.7421 197.651 79.6815 197.576 79.6833 197.49C79.6802 197.406 79.7391 197.335 79.86 197.278ZM78.2591 197.661C79.0733 198.09 79.5722 198.488 79.756 198.856C79.9444 199.226 79.7003 199.572 79.0236 199.893C78.3517 200.211 77.6508 200.314 76.921 200.201C76.1958 200.09 75.4262 199.82 74.612 199.391C73.7836 198.955 73.2752 198.551 73.0867 198.181C72.8983 197.811 73.14 197.466 73.8119 197.147C74.4886 196.826 75.1919 196.722 75.9218 196.836C76.6516 196.949 77.4307 197.224 78.2591 197.661ZM75.2646 199.081C75.6764 199.298 76.0533 199.468 76.3953 199.59C76.7373 199.717 77.0828 199.785 77.432 199.795C77.7763 199.807 78.1104 199.736 78.4342 199.582C78.7629 199.426 78.9267 199.261 78.9256 199.086C78.9196 198.914 78.8013 198.738 78.5705 198.558C78.3397 198.383 78.0184 198.187 77.6065 197.97C77.1805 197.746 76.7965 197.57 76.4546 197.443C76.1079 197.319 75.7623 197.25 75.418 197.238C75.0688 197.229 74.7299 197.302 74.4012 197.458C74.0774 197.611 73.9184 197.775 73.9244 197.947C73.9255 198.122 74.0438 198.298 74.2794 198.475C74.5102 198.655 74.8385 198.857 75.2646 199.081ZM72.3162 202.435L74.8612 201.228L73.2423 200.375C73.2826 200.507 73.2414 200.65 73.1185 200.803C73.0004 200.959 72.8157 201.096 72.5643 201.216C72.1631 201.406 71.754 201.517 71.337 201.549C70.9247 201.583 70.5352 201.557 70.1685 201.471C69.8017 201.389 69.4739 201.272 69.1852 201.12C68.8443 200.94 68.6043 200.748 68.465 200.544C68.3257 200.34 68.3133 200.133 68.4278 199.922C68.5374 199.714 68.7904 199.515 69.1868 199.327C69.6943 199.087 70.233 198.959 70.8028 198.945C71.3726 198.93 71.9044 199.019 72.3981 199.211L71.7528 199.518C71.4201 199.405 71.0765 199.357 70.722 199.374C70.3676 199.39 70.0356 199.472 69.7263 199.619C69.3444 199.8 69.168 199.995 69.1972 200.204C69.231 200.415 69.4326 200.618 69.8018 200.813C70.171 201.007 70.5517 201.111 70.9438 201.124C71.3407 201.14 71.7277 201.058 72.1047 200.879C72.3609 200.758 72.5242 200.618 72.5944 200.462C72.6646 200.31 72.6391 200.159 72.5178 200.008L73.1414 199.712L76.0383 201.238L72.8843 202.734L72.3162 202.435Z" fill="#6D6D6D"/>
<path d="M120.252 196.433C116.057 193.762 108.317 193.791 102.963 196.494C97.6087 199.199 96.67 203.556 100.865 206.225C105.06 208.895 112.8 208.867 118.154 206.164C123.507 203.459 124.447 199.102 120.252 196.433Z" fill="#FFDD45"/>
<path d="M116.582 200.936C115.854 200.473 114.841 200.31 114.32 200.573C113.8 200.836 113.968 201.425 114.696 201.889C115.425 202.352 116.437 202.515 116.958 202.252C117.479 201.989 117.311 201.399 116.582 200.936Z" fill="black"/>
<path d="M110.927 203.793C110.199 203.329 109.187 203.167 108.665 203.43C108.145 203.693 108.313 204.281 109.041 204.745C109.77 205.208 110.782 205.371 111.303 205.108C111.825 204.845 111.656 204.256 110.927 203.793Z" fill="black"/>
<path d="M114.672 198.173C112.295 197.821 109.497 198.191 107.34 199.281C105.082 200.422 104.124 202.049 104.614 203.477" stroke="black" stroke-width="0.9121" stroke-miterlimit="10" stroke-linecap="round"/>
<path d="M282.773 99.5972C282.773 99.5972 284.225 100.01 284.813 101.318C285.401 102.625 285.712 105.31 285.712 105.31L283.396 107.065L283.038 106.79L281.77 103.349L282.773 99.5972Z" fill="#A46A38"/>
<path d="M284.745 105.034L280.878 105.571L278.295 98.118L282.162 97.5811L284.745 105.034Z" fill="#EFE5DC"/>
<path d="M284.192 103.988L281.071 104.421L278.987 98.4061L282.107 97.9734L284.192 103.988Z" fill="#AAFFC2"/>
<path d="M289.663 118.216C286.696 114.601 285.297 112.282 283.038 106.789L285.451 104.633L294.42 112.915L289.663 118.216Z" fill="#A46A38"/>
<path d="M288.535 115.915C288.577 117.113 289.274 117.897 290.108 118.408C291.485 119.251 293.218 119.279 294.702 118.642L304.701 114.351L303.714 106.942L292.144 111.033C292.144 111.033 288.398 112.153 288.535 115.915Z" fill="#A46A38"/>
<path d="M305.925 104.456C310.126 104.67 310.234 111.425 308.725 113.355C307.217 115.285 298.599 118.073 298.599 118.073C298.599 118.073 295.69 116.357 295.258 113.462C294.827 110.568 296.659 108.209 296.659 108.209L305.925 104.456Z" fill="#C81D1D"/>
<path d="M303.099 181.495C301.046 181.179 294.179 177.429 294.179 177.429L293.657 176.896C293.455 176.688 293.319 176.448 293.227 176.195C292.968 176.91 293.088 177.735 293.657 178.318L294.179 178.852C294.179 178.852 301.046 182.602 303.099 182.918C305.151 183.234 309.493 181.736 309.256 179.388C309.232 179.142 309.204 178.908 309.177 178.677C308.592 180.606 304.934 181.777 303.099 181.495Z" fill="#A9B4C0"/>
<path d="M294.179 177.428C294.179 177.428 301.047 181.179 303.099 181.494C304.935 181.777 308.592 180.605 309.176 178.675C308.939 176.702 308.625 175.324 308.625 175.324L303.178 173.643L298.398 173.822C296.925 173.877 295.475 174.299 294.182 175.049C293.713 175.321 293.393 175.735 293.227 176.193C293.32 176.446 293.455 176.686 293.658 176.893L294.179 177.428Z" fill="#002245"/>
<path d="M297.225 175.608H296.463C297.481 174.741 298.799 174.014 300.003 173.75H300.764C299.514 174.052 298.184 174.778 297.225 175.608Z" fill="#CAD1D8"/>
<path d="M298.85 175.78H298.089C298.889 174.931 300.332 174.228 301.79 173.739H302.551C301.346 174.197 299.816 174.816 298.85 175.78Z" fill="#CAD1D8"/>
<path d="M294.731 185.624C292.679 185.308 285.811 181.559 285.811 181.559L285.29 181.025C285.088 180.818 284.952 180.577 284.859 180.324C284.6 181.039 284.721 181.864 285.29 182.448L285.811 182.981C285.811 182.981 292.679 186.732 294.731 187.047C296.784 187.363 301.126 185.865 300.889 183.517C300.865 183.272 300.837 183.037 300.81 182.806C300.225 184.736 296.567 185.906 294.731 185.624Z" fill="#A9B4C0"/>
<path d="M285.812 181.558C285.812 181.558 292.679 185.308 294.732 185.623C296.567 185.906 300.225 184.735 300.809 182.804C300.572 180.832 300.257 179.454 300.257 179.454L294.811 177.772L290.031 177.951C288.558 178.006 287.108 178.428 285.815 179.179C285.346 179.451 285.026 179.864 284.86 180.322C284.953 180.575 285.088 180.816 285.29 181.023L285.812 181.558Z" fill="#002245"/>
<path d="M288.858 179.738H288.097C289.114 178.87 290.432 178.143 291.637 177.879H292.398C291.147 178.182 289.817 178.908 288.858 179.738Z" fill="#CAD1D8"/>
<path d="M290.483 179.91H289.721C290.521 179.06 291.963 178.359 293.421 177.868H294.182C292.978 178.325 291.449 178.945 290.483 179.91Z" fill="#CAD1D8"/>
<path d="M273.65 121.675C274.228 117.043 276.512 111.688 278.946 106.271L282.18 106.518L280.787 121.439L273.65 121.675Z" fill="#A46A38"/>
<path d="M273.598 121.971C273.641 123.168 274.338 123.953 275.172 124.463C276.549 125.306 278.281 125.335 279.766 124.698L289.765 120.407L288.777 112.997L277.207 117.088C277.207 117.088 273.462 118.209 273.598 121.971Z" fill="#A46A38"/>
<path d="M302.215 176.513L306.196 176.655C307.74 176.709 308.965 175.49 308.909 173.955L308.881 173.207C308.878 173.135 308.879 173.064 308.881 172.993L310.536 138.377L299.91 140.418L299.428 173.59C299.415 174.213 299.617 174.832 300.001 175.344C300.529 176.05 301.349 176.483 302.215 176.513Z" fill="#818A88"/>
<path opacity="0.5" d="M302.238 175.608C302.238 175.608 301.616 164.321 301.477 159.161C301.339 153.999 300.647 147.875 300.647 147.875" stroke="#646F6D" stroke-width="0.2723" stroke-miterlimit="10"/>
<path d="M297.79 182.57L293.809 182.711C292.264 182.766 291.039 181.547 291.096 180.012L291.123 179.264C291.126 179.192 291.126 179.121 291.123 179.049L289.583 142.162L301.477 145.879L300.577 179.648C300.59 180.271 300.388 180.889 300.004 181.402C299.475 182.106 298.656 182.539 297.79 182.57Z" fill="#94A09E"/>
<path d="M289.583 142.162C289.583 142.162 289.215 140.052 290.506 138.492C291.797 136.932 302.952 132.436 302.952 132.436C302.952 132.436 305.349 132.436 307.47 133.354C309.59 134.272 310.513 137.483 310.513 137.483C310.513 137.483 311.065 142.621 309.038 144.181C307.01 145.742 300.094 149.32 300.094 149.32L289.583 142.162Z" fill="#94A09E"/>
<path d="M289.86 139.317C289.86 139.317 296.222 141.611 299.358 141.335C302.493 141.06 309.96 135.922 309.96 135.922C309.96 135.922 311.066 134.362 311.066 132.16C311.066 129.958 309.868 127.938 309.868 127.938L309.315 111.697C309.315 111.697 309.499 107.385 307.102 105.641C306.375 105.112 305.487 104.727 304.602 104.447C302.441 103.762 300.106 103.902 298.011 104.766C294.727 106.121 290.743 108.509 290.552 108.509C290.276 108.509 287.994 111.583 288.271 113.877C288.547 116.171 288.294 121.149 288.294 121.149L288.847 134.087C288.847 134.087 288.293 138.124 289.86 139.317Z" fill="#B30000"/>
<path d="M290.988 110.511C295.19 110.725 295.298 117.48 293.789 119.411C292.28 121.341 283.662 124.128 283.662 124.128C283.662 124.128 280.753 122.413 280.323 119.518C279.892 116.623 281.724 114.264 281.724 114.264L290.988 110.511Z" fill="#C81D1D"/>
<path d="M278.762 106.789C278.831 105.31 279.799 104.553 279.799 104.553L280.837 103.348L280.94 102.041L281.667 101.938L282.255 103.142L282.773 105.138L282.047 107.684" fill="#A46A38"/>
<path d="M282.6 101.834L282.773 103.038C282.773 103.038 282.842 104.345 283.568 104.862C284.295 105.378 285.54 105.551 285.54 105.551L285.712 104.759L284.398 102.729L283.845 102.625L283.223 101.662L282.6 101.834Z" fill="#A46A38"/>
<path d="M279.039 100.354C279.039 100.354 278.312 101.559 277.932 102.488C277.552 103.417 278.174 104.793 278.174 104.793L278.97 106.583L280.042 106.892L281.979 104.621L279.039 100.354Z" fill="#A46A38"/>
<path d="M293.111 141.818L294.01 147.598C294.01 147.598 291.52 145.741 293.111 141.818Z" fill="#646F6D"/>
<path opacity="0.5" d="M294.009 147.599C294.009 147.599 294.009 159.367 294.216 166.111C294.423 172.855 294.354 180.288 294.354 181.114" stroke="#646F6D" stroke-width="0.2723" stroke-miterlimit="10"/>
<path d="M294.493 107.445C294.493 107.445 295.738 109.405 299.611 108.456C303.483 107.508 303.76 106.118 303.76 106.118C303.76 106.118 301.34 105.422 299.127 105.548C296.913 105.675 294.493 107.445 294.493 107.445Z" fill="#A46A38"/>
<path d="M302.86 106.169L300.717 101.834C300.717 101.834 301.754 99.6316 302.169 96.8096C302.583 93.9876 301.408 88.8958 296.568 88.8958C291.728 88.8958 290.482 92.6813 290.621 94.3324C290.76 95.9835 291.174 96.4658 291.174 96.4658C291.174 96.4658 290.898 100.664 293.525 103.347C294.286 103.279 294.908 102.796 294.908 102.796C294.908 102.796 295.53 104.586 295.53 105.687C295.53 106.788 295.461 107.408 295.461 107.408C295.461 107.408 297.812 109.335 302.86 106.169Z" fill="#A46A38"/>
<path d="M290.642 93.3253C290.652 93.8501 290.662 94.3738 290.672 94.8986C290.92 94.933 291.168 94.9673 291.417 95.0017C291.266 96.1018 291.166 97.3717 291.941 98.1705C292.169 98.4051 292.458 98.5769 292.764 98.6942C293.765 99.0754 295.056 98.7761 295.596 97.855C295.646 98.7084 295.88 99.5516 296.279 100.309C296.601 100.918 297.09 101.511 297.769 101.635C298.448 101.758 299.245 101.138 299.051 100.479C299.805 100.773 299.471 102.129 300.186 102.508C300.885 102.878 301.604 101.89 302.395 101.904C303.237 102.302 304.29 102.211 305.05 101.676C305.81 101.141 306.248 100.184 306.153 99.2625C306.09 98.6528 305.847 97.9369 306.275 97.4971C306.609 97.1553 307.157 97.2008 307.629 97.1189C308.698 96.9329 309.474 96.0169 310.072 95.115C310.491 94.484 310.881 93.8086 310.993 93.0604C311.106 92.3132 310.889 91.475 310.282 91.02C310.02 90.8229 309.7 90.7066 309.456 90.4882C309.211 90.2698 309.062 89.8825 309.253 89.6166C309.375 89.4478 309.592 89.382 309.768 89.2688C310.359 88.8856 310.375 87.9746 309.989 87.3871C309.603 86.7997 308.943 86.459 308.313 86.1425C308.305 85.5368 308.297 84.9302 308.289 84.3245C307.38 83.2973 306.311 82.4095 305.133 81.7028C305.011 81.8524 304.888 82.002 304.765 82.1507C304.129 82.4752 303.429 81.8211 303.109 81.1861C302.79 80.5501 302.486 79.7685 301.792 79.5997C301.163 79.446 300.472 80.0334 300.526 80.6755C299.896 80.7523 299.273 80.5137 298.692 80.2599C298.111 80.0061 297.517 79.7261 296.882 79.716C296.247 79.7059 295.555 80.0516 295.395 80.6634C295.332 80.905 295.348 81.182 295.187 81.3742C294.877 81.7452 294.276 81.4652 293.908 81.1517C293.54 80.8383 293.008 80.4905 292.625 80.7857C292.56 81.3752 292.496 81.9646 292.431 82.5541C291.668 82.4945 291.008 83.3872 291.292 84.094C290.395 83.7341 289.266 84.0778 288.727 84.8766C288.187 85.6754 288.292 86.8452 288.966 87.5368C288.485 87.2112 287.788 87.6187 287.593 88.1637C287.35 88.8441 287.65 89.4912 287.697 90.1697C287.729 90.6479 287.516 91.1211 287.556 91.5802C287.685 93.0412 289.48 93.2545 290.642 93.3253Z" fill="#1A0E00"/>
<path opacity="0.6" d="M138.493 194.222C154.384 194.222 167.266 189.217 167.266 183.043C167.266 176.868 154.384 171.863 138.493 171.863C122.602 171.863 109.719 176.868 109.719 183.043C109.719 189.217 122.602 194.222 138.493 194.222Z" fill="url(#paint7_radial_19_2538)"/>
<path d="M138.472 117.296C138.472 117.296 140.178 118.276 141.768 117.975C143.359 117.673 143.283 114.432 143.283 114.432C143.283 114.432 139.571 114.997 138.472 117.296Z" fill="#C59758"/>
<path d="M135.721 104.455L137.236 103.4C137.236 103.4 135.165 99.5303 131.831 99.8811C132.488 103.6 134.861 104.907 134.861 104.907L135.721 104.455Z" fill="#004498"/>
<path d="M136.381 102.815L143.231 113.398C143.231 113.398 143.798 115.14 142.409 116.356C141.02 117.572 138.987 116.43 138.987 116.43L132.336 105.196L136.381 102.815Z" fill="#C59758"/>
<path d="M138.191 126.972L135.778 120.607L135.935 114.997L138.018 111.756C138.56 110.674 138.534 109.396 137.947 108.338L135.719 104.959C134.842 103.376 134.663 101.397 133.093 100.486L132.026 99.5637C130.311 98.5688 127.815 99.0127 124.814 100.57C123.253 101.38 120.108 103.436 120.108 103.436C117.382 106.099 118.48 108.165 118.364 110.907C118.296 112.511 121.629 116.85 121.685 119.165C121.741 121.48 120.956 128.55 120.956 128.55C120.956 128.55 124.32 134.279 129.785 133.09C135.251 131.9 138.191 126.972 138.191 126.972Z" fill="#004498"/>
<path d="M121.413 149.806C121.413 149.806 122.388 164.071 122.736 165.179C122.736 165.179 121.512 168.509 122.206 172.194C122.9 175.878 124.573 182.347 124.573 182.347C124.573 182.347 125.126 183.612 126.568 183.112C128.011 182.61 127.683 181.237 127.683 181.237L130.324 150.566L121.413 149.806Z" fill="#D5A46D"/>
<path d="M131.484 144.318C131.484 144.318 132.183 158.535 132.508 159.634C132.508 159.634 131.231 162.987 131.85 166.649C132.469 170.311 134.007 176.73 134.007 176.73C134.007 176.73 134.531 177.98 135.973 177.446C137.413 176.913 137.114 175.55 137.114 175.55L140.312 144.872L131.484 144.318Z" fill="#D19B5F"/>
<path d="M115.984 147.245C115.984 147.245 114.172 150.409 118.33 152.019C122.489 153.63 127.255 155.18 131.054 154.244C139.789 152.091 142.808 150.788 142.808 150.788C142.808 150.788 146.403 149.509 144.524 146.58C142.646 143.65 137.79 126.972 137.79 126.972C137.79 126.972 135.103 129.44 129.919 130.003C124.631 130.576 121.063 128.263 121.063 128.263L115.984 147.245Z" fill="#FF5E77"/>
<path d="M143.488 181.574C143.488 181.574 138.551 181.606 137.523 181.202L134.394 179.971L133.758 179.466C133.263 179.071 132.973 178.521 132.876 177.942C132.836 178.709 133.11 179.483 133.758 179.997L134.394 180.503L137.523 181.734C138.552 182.138 143.488 182.106 143.488 182.106C144.979 182.148 146.086 180.852 145.918 179.457C145.788 180.63 144.786 181.61 143.488 181.574Z" fill="#F2F2F2"/>
<path d="M135.523 175.314C135.458 175.575 135.564 176.129 135.616 176.573C135.684 176.344 135.572 175.781 135.523 175.314Z" fill="#FF4361"/>
<path d="M133.937 176.524C134.09 177.505 135.333 177.355 135.567 177.202C135.662 177.14 135.652 176.882 135.616 176.573C135.604 176.613 135.593 176.654 135.567 176.67C135.333 176.824 134.09 176.973 133.937 175.992C133.743 176.047 133.536 176.083 133.306 176.09C132.9 176.643 132.772 177.31 132.876 177.943C132.901 177.481 133.014 177.02 133.306 176.621C133.536 176.616 133.743 176.58 133.937 176.524Z" fill="#FF4361"/>
<path d="M134.395 179.971L137.524 181.202C138.552 181.606 143.489 181.574 143.489 181.574C144.787 181.61 145.789 180.63 145.919 179.456C145.899 179.288 145.868 179.117 145.808 178.947L141.992 177.723L138.46 175.284C137.72 174.19 136.585 174.605 135.603 175.184C135.564 175.206 135.539 175.252 135.524 175.315C135.573 175.782 135.684 176.346 135.616 176.574C135.652 176.883 135.663 177.14 135.567 177.203C135.333 177.356 134.09 177.506 133.938 176.525C133.744 176.58 133.537 176.616 133.307 176.622C133.014 177.021 132.903 177.482 132.877 177.944C132.974 178.523 133.262 179.073 133.759 179.468L134.395 179.971Z" fill="#FF4361"/>
<path d="M133.733 187.237C133.733 187.237 128.795 187.269 127.768 186.865L124.639 185.634L124.003 185.129C123.494 184.724 123.193 184.158 123.104 183.562C122.99 184.395 123.297 185.266 124.003 185.826L124.639 186.332L127.768 187.562C128.796 187.967 133.733 187.935 133.733 187.935C135.237 187.977 136.346 186.659 136.156 185.25C135.969 186.366 134.984 187.272 133.733 187.237Z" fill="#F2F2F2"/>
<path d="M124.003 185.13L124.639 185.635L127.768 186.866C128.797 187.27 133.733 187.238 133.733 187.238C134.983 187.273 135.968 186.367 136.156 185.252C136.135 185.094 136.108 184.936 136.053 184.777L132.238 183.553L128.705 181.114C127.5 179.332 125.211 181.385 124.274 181.789C124.042 181.889 123.81 182.11 123.594 182.386C123.316 182.739 123.161 183.147 123.104 183.564C123.194 184.158 123.494 184.725 124.003 185.13Z" fill="#FF4361"/>
<path d="M127.089 182.69C127.089 182.69 128.191 181.544 129.218 181.419C128.917 182.018 127.84 183.488 127.84 183.488L130.044 182.217L129.042 184.086L130.62 182.69L129.893 184.31L131.972 183.138L130.519 184.659L133.35 183.487L131.096 185.057" stroke="#F2F2F2" stroke-width="0.3944" stroke-miterlimit="10" stroke-linecap="round" stroke-linejoin="round"/>
<path d="M138.46 175.545L136.731 176.591L139.588 175.868L137.133 177.19L140.289 176.392L137.759 177.986L140.79 176.741L139.261 178.136L141.591 177.364L139.838 178.859L142.142 177.862L141.241 179.009" stroke="#F2F2F2" stroke-width="0.3944" stroke-miterlimit="10" stroke-linecap="round" stroke-linejoin="round"/>
<path d="M138.094 115.427L139.155 110.283L143.284 109.225L143.587 109.382L142.261 115.415L138.094 116.746L137.828 116.393L138.094 115.427Z" fill="#F7F1E8"/>
<path d="M122.048 106.857L126.608 116.495C126.763 116.91 127.238 117.105 127.641 116.919L136.551 114.025L138.051 112.719L140.057 112.795L140.073 113.327L138.551 113.835L140.901 114.234L143.741 113.089L143.167 116.364L140.074 117.982L135.913 117.369L127.36 121.049C126.262 121.671 124.865 121.273 124.265 120.167L118.097 109.733C118.097 109.733 119.783 107.298 122.048 106.857Z" fill="#D5A46D"/>
<path d="M118.803 112.799C118.803 112.799 118.742 111.437 120.649 110.54C122.557 109.643 124.207 109.703 124.207 109.703C124.207 109.703 123.794 104.382 121.731 103.604C119.669 102.827 118.387 104.201 117.975 106.353C117.563 108.506 118.803 112.799 118.803 112.799Z" fill="#004498"/>
<path d="M123.06 102.483L124.946 103.713C124.946 103.713 129.11 108.31 130.672 107.598C132.233 106.886 131.127 102.095 131.127 102.095L129.435 100.088C129.435 100.088 127.181 99.9885 125.099 100.441C123.985 102.083 123.06 102.483 123.06 102.483Z" fill="#D5A46D"/>
<path d="M124.712 98.324C124.712 98.324 125.519 100.334 124.56 101.792C125.772 102.295 127.641 102.747 127.641 102.747L129.964 101.842L129.711 99.0267L124.712 98.324Z" fill="#D5A46D"/>
<path d="M132.892 93.8116C132.892 97.3363 130.654 101.54 127.893 101.54C125.131 101.54 122.893 97.3363 122.893 93.8116C122.893 90.2869 125.131 87.5691 127.893 87.5691C130.654 87.5691 132.892 90.2859 132.892 93.8116Z" fill="#D5A46D"/>
<path d="M123.323 94.0017C123.323 94.0017 122.667 92.3677 121.48 92.8955C120.293 93.4233 121.278 95.9359 122.339 96.6143C123.399 97.2928 123.879 96.313 123.879 96.313L123.323 94.0017Z" fill="#D5A46D"/>
<path d="M132.968 84.8047C132.968 84.8047 131.175 83.5479 128.65 83.7744C126.126 84.0009 122.742 84.654 121.53 86.1616C120.343 87.6378 119.861 91.0644 121.346 92.8924C121.472 92.8672 121.607 92.852 121.75 92.852C122.613 92.852 122.851 93.0229 123.079 93.6427C123.202 93.854 123.318 94.0926 123.379 94.3787C123.555 95.2078 123.498 95.4091 123.498 95.4091L124.054 95.2584C124.054 95.2584 123.777 93.9763 124.231 93.2979C124.685 92.6194 125.317 92.8207 125.317 91.8652C125.317 90.9107 125.519 90.6842 125.519 90.6842C125.519 90.6842 127.161 89.6792 129.206 89.4527C131.251 89.2262 132.236 90.6842 132.236 90.6842C132.236 90.6842 133.397 90.5336 133.725 88.1969C134.054 85.8603 132.968 84.8047 132.968 84.8047Z" fill="#3F2900"/>
<path d="M121.328 87.6691C121.328 87.6691 119.207 88.9754 118.298 86.1616C117.39 83.3477 120.42 80.734 122.036 81.3366C123.652 81.9392 124.864 84.5529 124.864 84.5529L121.328 87.6691Z" fill="#3F2900"/>
<circle cx="30.3592" cy="162.744" r="26.9231" fill="#2AB479"/>
<circle cx="30.3592" cy="162.744" r="28.4231" stroke="#86D2A4" stroke-opacity="0.5" stroke-width="3"/>
<path d="M46.2552 160.254V170.114C46.2552 170.442 46.1904 170.767 46.0645 171.07C45.9387 171.373 45.7542 171.648 45.5218 171.879C45.2893 172.111 45.0135 172.294 44.71 172.418C44.4066 172.543 44.0815 172.606 43.7535 172.605H42.6991V176.946C42.6993 177.027 42.6753 177.106 42.6303 177.173C42.5852 177.239 42.5211 177.291 42.4462 177.322C42.3714 177.352 42.2892 177.359 42.2103 177.342C42.1314 177.325 42.0594 177.285 42.0035 177.226L40.2648 175.364L37.7071 172.605H32.0981V147.51H40.635C41.3128 147.873 41.8795 148.414 42.2746 149.073C42.6697 149.733 42.8784 150.488 42.8785 151.257V159.255H43.7423C44.678 159.248 45.5797 159.606 46.2552 160.254Z" fill="white" fill-opacity="0.5"/>
<path d="M42.8884 151.257V160.377C42.8837 160.799 42.8195 161.218 42.6977 161.622C42.5156 162.169 42.23 162.675 41.8563 163.114L41.6207 163.361L41.3179 163.63L41.0486 163.832C40.8072 164.002 40.5476 164.145 40.2746 164.258C40.1518 164.315 40.0241 164.36 39.8932 164.393C39.7634 164.446 39.6278 164.484 39.4893 164.505C39.353 164.538 39.2142 164.561 39.0743 164.572H38.648H26.0839L25.8932 164.774L23.6272 167.231L21.0246 170.013C20.8827 170.172 20.7103 170.301 20.5175 170.391C20.3247 170.482 20.1156 170.533 19.9028 170.54C19.695 170.537 19.4895 170.495 19.297 170.417C18.9918 170.299 18.7297 170.091 18.5455 169.82C18.3612 169.55 18.2633 169.23 18.265 168.903V164.584H18.0182C16.8906 164.584 15.8092 164.136 15.0118 163.338C14.2145 162.541 13.7666 161.46 13.7666 160.332V159.895C13.7666 159.597 13.8848 159.312 14.0951 159.101C14.3055 158.891 14.5909 158.773 14.8884 158.773C15.1859 158.773 15.4712 158.891 15.6816 159.101C15.892 159.312 16.0102 159.597 16.0102 159.895V160.332C16.0102 160.865 16.2217 161.375 16.5983 161.752C16.9749 162.129 17.4856 162.34 18.0182 162.34H20.4525V167.343L23.6272 163.866L25.0743 162.295H38.6368C39.1637 162.292 39.6694 162.087 40.0502 161.723C40.231 161.543 40.3757 161.33 40.4765 161.095C40.5794 160.845 40.6364 160.579 40.6448 160.31V151.257C40.636 150.73 40.4205 150.228 40.0449 149.859C39.6693 149.489 39.1635 149.282 38.6368 149.282H18.0182C17.7535 149.276 17.4903 149.323 17.2437 149.419C16.9971 149.515 16.7719 149.659 16.5811 149.843C16.3903 150.026 16.2377 150.246 16.132 150.488C16.0263 150.731 15.9697 150.992 15.9653 151.257V154.095C15.9653 154.392 15.8471 154.678 15.6367 154.888C15.4263 155.099 15.141 155.217 14.8435 155.217C14.546 155.217 14.2606 155.099 14.0503 154.888C13.8399 154.678 13.7217 154.392 13.7217 154.095V151.257C13.7261 150.697 13.8408 150.145 14.0592 149.63C14.2777 149.115 14.5956 148.648 14.9947 148.256C15.3938 147.864 15.8663 147.555 16.3851 147.346C16.904 147.137 17.4589 147.033 18.0182 147.039H38.6368C39.3342 147.037 40.0209 147.21 40.6336 147.544C41.3085 147.903 41.8742 148.437 42.271 149.09C42.6678 149.744 42.8811 150.492 42.8884 151.257Z" fill="white"/>
<path d="M46.2552 160.254C45.5825 159.609 44.6854 159.251 43.7536 159.256H40.6686V160.377C40.6602 160.647 40.6032 160.913 40.5004 161.163C40.3914 161.393 40.2476 161.605 40.0741 161.791C39.6932 162.155 39.1875 162.36 38.6606 162.363H25.0981L23.6286 163.866V170.059C23.6286 171.02 24.0103 171.941 24.6898 172.621C25.3693 173.3 26.291 173.682 27.252 173.682H37.1686L41.1286 177.945C41.2729 178.098 41.4466 178.221 41.6393 178.305C41.832 178.39 42.0398 178.435 42.2503 178.438C42.4393 178.439 42.6264 178.401 42.8 178.326C43.0907 178.228 43.3443 178.043 43.5267 177.796C43.7092 177.55 43.8119 177.253 43.8209 176.946V173.727C44.7721 173.715 45.6806 173.33 46.3501 172.654C47.0196 171.978 47.3965 171.066 47.3994 170.115V162.868C47.3968 162.377 47.294 161.892 47.0972 161.443C46.9004 160.993 46.6139 160.589 46.2552 160.254ZM25.8721 170.103V164.786L26.0629 164.584H38.6382H39.0645C39.2044 164.573 39.3431 164.55 39.4795 164.517C39.618 164.495 39.7536 164.458 39.8834 164.405C40.0143 164.371 40.1419 164.326 40.2648 164.27C40.5378 164.157 40.7974 164.014 41.0388 163.844L41.308 163.642L41.6109 163.373L41.8465 163.126C42.2254 162.685 42.515 162.174 42.6991 161.623V161.51H43.7311C44.0951 161.51 44.4444 161.654 44.7028 161.911C44.9613 162.167 45.108 162.515 45.1109 162.879V170.126C45.108 170.49 44.9613 170.838 44.7028 171.094C44.4444 171.351 44.0951 171.494 43.7311 171.494H41.5773V175.084L38.2119 171.438H27.2744C26.9122 171.444 26.5622 171.308 26.2998 171.058C26.0375 170.808 25.8839 170.465 25.8721 170.103Z" fill="white"/>
<path d="M22.776 156.821C23.6681 156.821 24.3914 156.098 24.3914 155.206C24.3914 154.314 23.6681 153.591 22.776 153.591C21.8838 153.591 21.1606 154.314 21.1606 155.206C21.1606 156.098 21.8838 156.821 22.776 156.821Z" fill="white"/>
<path d="M28.4165 156.821C29.3087 156.821 30.0319 156.098 30.0319 155.206C30.0319 154.314 29.3087 153.591 28.4165 153.591C27.5244 153.591 26.8011 154.314 26.8011 155.206C26.8011 156.098 27.5244 156.821 28.4165 156.821Z" fill="white"/>
<path d="M33.6995 156.821C34.5916 156.821 35.3148 156.098 35.3148 155.206C35.3148 154.314 34.5916 153.591 33.6995 153.591C32.8073 153.591 32.0841 154.314 32.0841 155.206C32.0841 156.098 32.8073 156.821 33.6995 156.821Z" fill="white"/>
<circle cx="83.3079" cy="382.615" r="26.9231" fill="#2AB479"/>
<circle cx="83.3079" cy="382.615" r="28.4231" stroke="#86D2A4" stroke-opacity="0.5" stroke-width="3"/>
<g clip-path="url(#clip0_19_2538)">
<path d="M70.2035 385.4C70.2035 385.4 70.9187 381.66 73.0643 381.516C73.0643 381.516 71.2048 379.645 69.3453 381.516C67.4858 383.386 70.2035 385.4 70.2035 385.4ZM82.0756 379.358C82.0756 379.358 82.7907 375.617 84.9363 375.473C84.9363 375.473 82.9338 373.315 81.0743 375.329C79.3579 377.2 82.0756 379.358 82.0756 379.358ZM93.4887 371.331C93.4887 371.331 94.2039 367.59 96.3494 367.446C96.3494 367.446 94.3469 365.432 92.4874 367.303C90.6279 369.317 93.4887 371.331 93.4887 371.331ZM79.8168 399.325L86.4799 382.954H79.5307M91.4027 376.912H98.495L91.8318 399.325M67.3726 399.643L74.4648 388.883H67.1998" fill="white" fill-opacity="0.5"/>
<path d="M68.3932 398.596V388.58H74.8717V398.596H68.3932ZM80.6012 398.596V382.889H87.225V398.596H80.6012ZM92.6639 398.596V376.76H99.2877V398.596H92.6639Z" stroke="white" stroke-width="2.0962"/>
<path d="M71.8015 385.837C73.3266 385.837 74.5629 384.6 74.5629 383.075C74.5629 381.55 73.3266 380.314 71.8015 380.314C70.2765 380.314 69.0402 381.55 69.0402 383.075C69.0402 384.6 70.2765 385.837 71.8015 385.837Z" stroke="white" stroke-width="1.67696" stroke-miterlimit="10"/>
<path d="M83.7697 379.393C85.2947 379.393 86.531 378.157 86.531 376.632C86.531 375.107 85.2947 373.871 83.7697 373.871C82.2446 373.871 81.0083 375.107 81.0083 376.632C81.0083 378.157 82.2446 379.393 83.7697 379.393Z" stroke="white" stroke-width="1.67696" stroke-miterlimit="10"/>
<path d="M94.8124 371.11C96.3374 371.11 97.5737 369.873 97.5737 368.348C97.5737 366.823 96.3374 365.587 94.8124 365.587C93.2873 365.587 92.051 366.823 92.051 368.348C92.051 369.873 93.2873 371.11 94.8124 371.11Z" stroke="white" stroke-width="1.67696" stroke-miterlimit="10"/>
<path d="M73.6431 381.235L81.2483 377.3M85.5531 374.77L92.9725 369.269" stroke="white" stroke-width="1.67696" stroke-miterlimit="10"/>
</g>
<circle cx="364.205" cy="379.923" r="26.9231" fill="#2AB479"/>
<circle cx="364.205" cy="379.923" r="28.4231" stroke="#86D2A4" stroke-opacity="0.5" stroke-width="3"/>
<path d="M370.189 373.02L366.02 386.826H350.86V373.02L370.189 373.02Z" fill="white" fill-opacity="0.5"/>
<path d="M376.714 371.984H375.82V370.22C375.82 369.733 375.421 369.338 374.927 369.338C374.434 369.338 374.034 369.733 374.034 370.22V371.984H372.247V370.22C372.247 369.733 371.847 369.338 371.354 369.338C370.86 369.338 370.46 369.733 370.46 370.22V371.984H368.673V370.22C368.673 369.733 368.274 369.338 367.78 369.338C367.287 369.338 366.887 369.733 366.887 370.22V371.984H365.1V370.22C365.1 369.733 364.7 369.338 364.207 369.338C363.713 369.338 363.313 369.733 363.313 370.22V371.984H361.526V370.22C361.526 369.733 361.127 369.338 360.633 369.338C360.14 369.338 359.74 369.733 359.74 370.22V371.984H357.953V370.22C357.953 369.733 357.553 369.338 357.06 369.338C356.566 369.338 356.166 369.733 356.166 370.22V371.984H354.379V370.22C354.379 369.733 353.98 369.338 353.486 369.338C352.993 369.338 352.593 369.733 352.593 370.22V371.984H351.699C350.219 371.984 349.019 373.169 349.019 374.63V385.216C349.019 386.677 350.219 387.862 351.699 387.862H352.593V389.626C352.593 390.113 352.993 390.508 353.486 390.508C353.98 390.508 354.379 390.113 354.379 389.626V387.862H356.166V389.626C356.166 390.113 356.566 390.508 357.06 390.508C357.553 390.508 357.953 390.113 357.953 389.626V387.862H359.74V389.626C359.74 390.113 360.14 390.508 360.633 390.508C361.127 390.508 361.526 390.113 361.526 389.626V387.862H363.313V389.626C363.313 390.113 363.713 390.508 364.207 390.508C364.7 390.508 365.1 390.113 365.1 389.626V387.862H366.887V389.626C366.887 390.113 367.287 390.508 367.78 390.508C368.274 390.508 368.673 390.113 368.673 389.626V387.862H370.46V389.626C370.46 390.113 370.86 390.508 371.354 390.508C371.847 390.508 372.247 390.113 372.247 389.626V387.862H374.034V389.626C374.034 390.113 374.434 390.508 374.927 390.508C375.421 390.508 375.82 390.113 375.82 389.626V387.862H376.714C378.194 387.862 379.394 386.677 379.394 385.216V374.63C379.394 373.169 378.194 371.984 376.714 371.984ZM350.806 379.041C351.299 379.041 351.699 379.437 351.699 379.923C351.699 380.409 351.299 380.805 350.806 380.805V379.041ZM377.607 385.216C377.607 385.702 377.206 386.098 376.714 386.098H351.699C351.207 386.098 350.806 385.702 350.806 385.216V382.569C352.284 382.569 353.486 381.382 353.486 379.923C353.486 378.464 352.284 377.277 350.806 377.277V374.63C350.806 374.144 351.207 373.748 351.699 373.748H376.714C377.206 373.748 377.607 374.144 377.607 374.63V385.216Z" fill="white"/>
<path d="M374.791 377.622H360.064C359.555 377.622 359.143 378.034 359.143 378.542C359.143 379.05 359.555 379.462 360.064 379.462H374.791C375.299 379.462 375.711 379.05 375.711 378.542C375.711 378.034 375.299 377.622 374.791 377.622ZM371.109 381.303H360.064C359.555 381.303 359.143 381.715 359.143 382.224C359.143 382.732 359.555 383.144 360.064 383.144H371.109C371.618 383.144 372.03 382.732 372.03 382.224C372.03 381.715 371.618 381.303 371.109 381.303Z" fill="white"/>
<circle cx="409.077" cy="174.41" r="26.9231" fill="#2AB479"/>
<circle cx="409.077" cy="174.41" r="28.4231" stroke="#86D2A4" stroke-opacity="0.5" stroke-width="3"/>
<path d="M396.355 178.15L416.929 172.167L416.929 163.193L396.356 163.193L396.355 178.15Z" fill="white" fill-opacity="0.5"/>
<circle cx="417.378" cy="185.212" r="3.75" fill="white" fill-opacity="0.5"/>
<path d="M417.53 186.911L417.53 186.911C417.722 186.799 417.957 186.786 418.161 186.877L419.139 187.315C419.341 187.405 419.578 187.362 419.735 187.205C419.892 187.048 419.936 186.811 419.845 186.608L419.407 185.63C419.316 185.426 419.328 185.191 419.441 184.997L419.441 184.997C419.687 184.579 419.874 184.13 419.998 183.661C420.055 183.445 420.212 183.269 420.421 183.189L421.42 182.808C421.628 182.729 421.765 182.53 421.765 182.308C421.765 182.086 421.628 181.887 421.42 181.808L420.421 181.427C420.212 181.347 420.054 181.172 419.998 180.955M417.53 186.911L413.455 177.028C413.632 176.981 413.775 176.852 413.841 176.681L414.221 175.682C414.318 175.426 414.564 175.257 414.838 175.257C415.111 175.257 415.357 175.426 415.454 175.682L415.836 176.681C415.901 176.852 416.044 176.981 416.221 177.028L416.189 177.149C416.189 177.149 416.189 177.149 416.189 177.149C416.659 177.273 417.11 177.46 417.529 177.705L417.529 177.705C417.722 177.818 417.958 177.83 418.162 177.739L419.138 177.301C419.341 177.21 419.578 177.254 419.735 177.411C419.892 177.568 419.936 177.805 419.845 178.007L419.407 178.984C419.316 179.188 419.328 179.424 419.441 179.617L419.441 179.617C419.687 180.036 419.874 180.486 419.998 180.955M417.53 186.911C417.11 187.156 416.659 187.343 416.19 187.467C415.974 187.524 415.799 187.681 415.719 187.89L415.338 188.889C415.259 189.096 415.06 189.233 414.838 189.233C414.616 189.233 414.416 189.096 414.337 188.889L413.957 187.89C413.878 187.682 413.703 187.524 413.486 187.467L413.486 187.467M417.53 186.911L413.486 187.467M419.998 180.955C419.998 180.955 419.998 180.955 419.998 180.955L420.119 180.923M419.998 180.955C419.998 180.955 419.998 180.955 419.998 180.955L420.119 180.923M420.119 180.923C420.165 181.101 420.294 181.245 420.466 181.31L421.465 181.691C421.721 181.789 421.89 182.035 421.89 182.309C421.89 182.582 421.721 182.827 421.465 182.925L420.466 183.306C420.294 183.371 420.165 183.515 420.119 183.693L419.549 179.554C419.8 179.982 419.992 180.443 420.119 180.923ZM409.679 180.957L409.679 180.957C409.622 181.173 409.464 181.348 409.255 181.428L408.257 181.808C408.049 181.887 407.912 182.086 407.912 182.308C407.912 182.53 408.049 182.729 408.256 182.808L409.256 183.19C409.464 183.269 409.622 183.444 409.678 183.66L409.679 180.957ZM409.679 180.957C409.802 180.487 409.989 180.037 410.235 179.618L409.679 180.957ZM413.486 187.467C413.017 187.343 412.567 187.157 412.148 186.912C411.955 186.799 411.72 186.786 411.516 186.878L410.539 187.315C410.336 187.406 410.099 187.362 409.942 187.205C409.785 187.048 409.741 186.811 409.832 186.608L410.269 185.63C410.361 185.426 410.348 185.19 410.235 184.997M413.486 187.467L410.235 184.997M410.235 184.997C409.989 184.578 409.802 184.129 409.678 183.66L410.235 184.997ZM415.615 190.619C415.944 190.619 416.238 190.416 416.355 190.11L416.798 188.95C416.856 188.796 416.984 188.676 417.145 188.617C417.322 188.552 417.497 188.48 417.668 188.401C417.823 188.328 417.999 188.323 418.15 188.39L419.283 188.897C419.582 189.031 419.934 188.966 420.166 188.734L421.265 187.635C421.497 187.403 421.562 187.051 421.428 186.751L420.921 185.62C420.853 185.469 420.859 185.292 420.932 185.136C421.012 184.965 421.084 184.791 421.149 184.615C421.208 184.454 421.328 184.326 421.482 184.267L422.641 183.825C422.947 183.708 423.15 183.414 423.15 183.086L423.151 181.53C423.151 181.202 422.948 180.907 422.641 180.79L421.483 180.348C421.329 180.29 421.209 180.162 421.149 180.001C421.084 179.823 421.012 179.649 420.932 179.478C420.859 179.322 420.854 179.146 420.921 178.995L421.428 177.864C421.562 177.565 421.497 177.214 421.265 176.981L420.166 175.88C419.934 175.648 419.582 175.583 419.282 175.717L418.15 176.225C417.999 176.292 417.823 176.287 417.667 176.214C417.496 176.135 417.322 176.062 417.145 175.998C416.984 175.938 416.856 175.818 416.797 175.664L416.355 174.505C416.238 174.198 415.944 173.995 415.616 173.995H414.059C413.731 173.995 413.436 174.198 413.32 174.505L412.879 175.664C412.82 175.818 412.692 175.938 412.53 175.998C412.354 176.062 412.18 176.135 412.009 176.214C411.853 176.286 411.677 176.292 411.526 176.224L410.396 175.717C410.096 175.583 409.744 175.648 409.512 175.88L408.412 176.981C408.179 177.213 408.115 177.565 408.249 177.864L408.756 178.995C408.823 179.146 408.818 179.322 408.745 179.478C408.665 179.649 408.593 179.823 408.528 180.001C408.469 180.162 408.348 180.29 408.194 180.349L407.036 180.79C406.729 180.907 406.526 181.201 406.526 181.53V183.085C406.526 183.414 406.729 183.708 407.036 183.825L408.195 184.267C408.349 184.326 408.469 184.454 408.528 184.615C408.593 184.792 408.665 184.966 408.745 185.137C408.817 185.293 408.823 185.469 408.756 185.62L408.249 186.751C408.115 187.051 408.179 187.403 408.412 187.635L409.512 188.734C409.744 188.966 410.096 189.031 410.395 188.897L411.526 188.39C411.677 188.323 411.853 188.329 412.009 188.401C412.18 188.48 412.353 188.552 412.53 188.617C412.692 188.676 412.82 188.797 412.879 188.951L413.32 190.109C413.436 190.416 413.731 190.619 414.059 190.619H415.615Z" fill="white" stroke="white" stroke-width="0.25"/>
<path d="M411.196 182.384C411.196 184.375 412.816 185.995 414.807 185.995C416.798 185.995 418.417 184.375 418.417 182.384C418.417 180.393 416.798 178.772 414.807 178.772C412.816 178.772 411.196 180.393 411.196 182.384ZM412.581 182.384C412.581 181.157 413.58 180.158 414.807 180.158C416.033 180.158 417.032 181.157 417.032 182.384C417.032 183.611 416.033 184.609 414.807 184.609C413.58 184.609 412.581 183.611 412.581 182.384Z" fill="white" stroke="white" stroke-width="0.25"/>
<path d="M416.884 163.623C417.414 163.623 417.843 163.194 417.843 162.665V159.16C417.843 158.631 417.414 158.202 416.884 158.202H395.965C395.436 158.202 395.007 158.631 395.007 159.16V162.665C395.007 163.194 395.436 163.623 395.965 163.623H416.884ZM397.101 162.238C396.71 162.238 396.393 161.921 396.393 161.529V160.296C396.393 159.904 396.71 159.587 397.101 159.587H415.749C416.14 159.587 416.457 159.904 416.457 160.296V161.529C416.457 161.921 416.14 162.238 415.749 162.238H397.101Z" fill="white" stroke="white" stroke-width="0.25"/>
<path d="M398.476 160.22C398.093 160.22 397.783 160.53 397.783 160.913C397.783 161.295 398.093 161.606 398.476 161.606C398.858 161.606 399.169 161.295 399.169 160.913C399.169 160.53 398.858 160.22 398.476 160.22ZM400.747 160.22C400.365 160.22 400.054 160.53 400.054 160.913C400.054 161.295 400.365 161.606 400.747 161.606C401.13 161.606 401.44 161.295 401.44 160.913C401.44 160.53 401.13 160.22 400.747 160.22ZM403.018 160.22C402.636 160.22 402.325 160.53 402.325 160.913C402.325 161.295 402.636 161.606 403.018 161.606C403.401 161.606 403.711 161.295 403.711 160.913C403.711 160.53 403.401 160.22 403.018 160.22ZM405.141 185.494C405.524 185.494 405.834 185.184 405.834 184.801C405.834 184.419 405.524 184.108 405.141 184.108H397.101C396.71 184.108 396.393 183.791 396.393 183.4V164.332C396.393 163.941 396.71 163.623 397.101 163.623H415.749C416.14 163.623 416.457 163.941 416.457 164.332V173.064C416.457 173.447 416.767 173.757 417.15 173.757C417.532 173.757 417.843 173.447 417.843 173.064V163.196C417.843 162.667 417.414 162.238 416.884 162.238H395.965C395.436 162.238 395.007 162.667 395.007 163.196V184.536C395.007 185.065 395.436 185.494 395.965 185.494H405.141Z" fill="white" stroke="white" stroke-width="0.25"/>
<path d="M407.807 167.953L407.806 167.953L406.472 167.953V169.001H407.806C407.947 169.001 408.078 168.947 408.177 168.847C408.276 168.748 408.33 168.617 408.33 168.477C408.33 168.337 408.276 168.206 408.177 168.106L407.807 167.953ZM407.807 167.953C407.875 167.953 407.943 167.967 408.007 167.993C408.07 168.019 408.128 168.058 408.177 168.106L407.807 167.953ZM402.662 168.107L402.662 168.106C402.613 168.058 402.556 168.019 402.492 167.993C402.429 167.967 402.361 167.953 402.292 167.953L402.292 167.953L401.48 167.953C401.341 167.953 401.209 168.008 401.111 168.107L401.11 168.107C401.061 168.156 401.023 168.213 400.996 168.277C400.97 168.34 400.957 168.408 400.957 168.477L400.957 168.477L400.957 172.126C400.957 172.509 400.647 172.819 400.264 172.819C399.881 172.819 399.571 172.509 399.571 172.126V168.477V168.477H399.696L402.662 168.107ZM402.662 168.107C402.761 168.206 402.815 168.337 402.815 168.477V172.127C402.815 172.509 403.126 172.819 403.508 172.819C403.891 172.819 404.201 172.509 404.201 172.127M402.662 168.107L404.201 172.127M406.472 172.127C406.472 172.509 406.162 172.819 405.779 172.819C405.396 172.819 405.086 172.509 405.086 172.127V167.261C405.086 167.077 405.159 166.901 405.289 166.771C405.419 166.641 405.595 166.568 405.779 166.568H407.806H407.806V166.693L406.472 172.127ZM406.472 172.127V170.386M406.472 172.127L406.347 170.386H406.472M409.715 168.477C409.716 168.226 409.667 167.978 409.571 167.746C409.475 167.514 409.334 167.304 409.157 167.127L407.806 170.261M409.715 168.477C409.716 168.728 409.667 168.976 409.571 169.208C409.475 169.439 409.334 169.65 409.157 169.827M409.715 168.477C409.715 168.477 409.715 168.477 409.715 168.477L409.59 168.477L409.715 168.478C409.715 168.477 409.715 168.477 409.715 168.477ZM409.157 169.827C408.98 170.005 408.769 170.146 408.538 170.242C408.306 170.338 408.057 170.387 407.806 170.386M409.157 169.827C409.157 169.827 409.157 169.827 409.157 169.827L409.068 169.738L409.157 169.827C409.157 169.827 409.157 169.827 409.157 169.827ZM407.806 170.386C407.806 170.386 407.806 170.386 407.806 170.386L407.806 170.261M407.806 170.386H407.806V170.261M407.806 170.386H406.472M407.806 170.261H406.472V170.386M404.201 172.127L404.201 168.478L404.076 168.477L404.201 168.477V168.477C404.202 168.227 404.153 167.978 404.057 167.746C403.961 167.515 403.82 167.304 403.642 167.127C403.465 166.949 403.254 166.809 403.023 166.713C402.791 166.617 402.543 166.567 402.292 166.568M404.201 172.127L402.292 166.693M401.481 166.568C401.23 166.567 400.982 166.617 400.75 166.713C400.518 166.808 400.308 166.949 400.131 167.127L401.481 166.693M401.481 166.568C401.481 166.568 401.481 166.568 401.481 166.568L401.481 166.693M401.481 166.568H401.481V166.693M401.481 166.568H402.292M401.481 166.693H402.292M402.292 166.568C402.292 166.568 402.292 166.568 402.292 166.568L402.292 166.693M402.292 166.568H402.292V166.693" fill="white" stroke="white" stroke-width="0.25"/>
<path d="M399.696 169H399.571V169.125V170.26V170.385H399.696H404.076H404.201V170.26V169.125V169H404.076H399.696ZM411.367 167.135H411.242V167.26V172.125V172.25H411.367H412.503H412.628V172.125V167.26V167.135H412.503H411.367Z" fill="white" stroke="white" stroke-width="0.25"/>
<path d="M411.286 166.568C410.903 166.568 410.593 166.878 410.593 167.261C410.593 167.643 410.903 167.953 411.286 167.953H412.584C412.966 167.953 413.276 167.643 413.276 167.261C413.276 166.878 412.966 166.568 412.584 166.568H411.286ZM411.286 171.433C410.903 171.433 410.593 171.744 410.593 172.126C410.593 172.509 410.903 172.819 411.286 172.819H412.584C412.966 172.819 413.276 172.509 413.276 172.126C413.276 171.744 412.966 171.433 412.584 171.433H411.286Z" fill="white" stroke="white" stroke-width="0.25"/>
<circle cx="180.231" cy="29.9231" r="26.9231" fill="#2AB479"/>
<circle cx="180.231" cy="29.9231" r="28.4231" stroke="#86D2A4" stroke-opacity="0.5" stroke-width="3"/>
<path opacity="0.4" d="M188.62 21.5011C190.423 21.5011 192.152 22.1944 193.427 23.4286C194.701 24.6627 195.418 26.3365 195.418 28.0819C195.418 29.8272 194.701 31.501 193.427 32.7352C192.152 33.9693 190.423 34.6626 188.62 34.6626V21.5011ZM165.963 22.5979V33.5658L179.558 35.9057V20.2581L165.963 22.5979Z" fill="white"/>
<path d="M174.248 44.1905C172.784 44.1905 171.379 43.5915 170.343 42.5253C169.307 41.4592 168.726 40.0131 168.726 38.5054V25.9981C168.726 25.6965 168.842 25.4073 169.049 25.1941C169.256 24.9809 169.537 24.8611 169.83 24.8611C170.123 24.8611 170.404 24.9809 170.611 25.1941C170.818 25.4073 170.935 25.6965 170.935 25.9981V38.5054C170.935 39.41 171.284 40.2776 171.905 40.9173C172.527 41.557 173.37 41.9164 174.248 41.9164C175.127 41.9164 175.97 41.557 176.591 40.9173C177.213 40.2776 177.562 39.41 177.562 38.5054V36.9135C177.562 36.612 177.678 36.3228 177.885 36.1095C178.093 35.8963 178.374 35.7765 178.666 35.7765C178.959 35.7765 179.24 35.8963 179.447 36.1095C179.655 36.3228 179.771 36.612 179.771 36.9135V38.5054C179.771 40.0131 179.189 41.4592 178.153 42.5253C177.118 43.5915 175.713 44.1905 174.248 44.1905Z" fill="white"/>
<path d="M187.849 39.5883H187.623L165.03 35.1743C164.771 35.1227 164.539 34.984 164.374 34.7824C164.209 34.5808 164.121 34.329 164.127 34.0708V23.0359C164.121 22.7777 164.209 22.5259 164.374 22.3243C164.539 22.1226 164.771 21.9839 165.03 21.9324L187.623 17.5184C187.787 17.4868 187.956 17.4912 188.118 17.5313C188.28 17.5713 188.431 17.6461 188.56 17.7501C188.693 17.8551 188.799 17.9881 188.872 18.1391C188.944 18.2901 188.981 18.4552 188.978 18.6219V38.4848C188.978 38.7775 188.859 39.0581 188.647 39.2651C188.436 39.472 188.148 39.5883 187.849 39.5883ZM166.386 33.1659L186.719 37.1385V19.9681L166.386 23.9407V33.1659Z" fill="white"/>
<path d="M188.288 35.9057C187.983 35.9057 187.69 35.7879 187.474 35.5783C187.258 35.3687 187.137 35.0844 187.137 34.788C187.137 34.4915 187.258 34.2073 187.474 33.9976C187.69 33.788 187.983 33.6703 188.288 33.6703C189.813 33.6703 191.277 33.0815 192.356 32.0335C193.434 30.9854 194.04 29.564 194.04 28.0819C194.04 26.5997 193.434 25.1783 192.356 24.1302C191.277 23.0822 189.813 22.4934 188.288 22.4934C187.983 22.4934 187.69 22.3757 187.474 22.1661C187.258 21.9565 187.137 21.6722 187.137 21.3757C187.137 21.0793 187.258 20.795 187.474 20.5854C187.69 20.3758 187.983 20.2581 188.288 20.2581C190.424 20.2581 192.472 21.0823 193.983 22.5496C195.493 24.0168 196.342 26.0069 196.342 28.0819C196.342 30.1569 195.493 32.1469 193.983 33.6141C192.472 35.0814 190.424 35.9057 188.288 35.9057Z" fill="white"/>
<defs>
<radialGradient id="paint0_radial_19_2538" cx="0" cy="0" r="1" gradientUnits="userSpaceOnUse" gradientTransform="translate(210.744 347.326) rotate(11.837) scale(175.092 74.0549)">
<stop stop-color="#749993"/>
<stop offset="1" stop-color="#749993" stop-opacity="0"/>
</radialGradient>
<linearGradient id="paint1_linear_19_2538" x1="117.686" y1="261.422" x2="289.938" y2="350.18" gradientUnits="userSpaceOnUse">
<stop stop-color="#00954C"/>
<stop offset="0.5018" stop-color="#67CC9B"/>
</linearGradient>
<radialGradient id="paint2_radial_19_2538" cx="0" cy="0" r="1" gradientUnits="userSpaceOnUse" gradientTransform="translate(292.5 333.632) scale(62.347 24.2241)">
<stop stop-color="#749993"/>
<stop offset="1" stop-color="#749993" stop-opacity="0"/>
</radialGradient>
<radialGradient id="paint3_radial_19_2538" cx="0" cy="0" r="1" gradientUnits="userSpaceOnUse" gradientTransform="translate(119.534 291.698) scale(62.347 24.2241)">
<stop stop-color="#749993"/>
<stop offset="1" stop-color="#749993" stop-opacity="0"/>
</radialGradient>
<radialGradient id="paint4_radial_19_2538" cx="0" cy="0" r="1" gradientUnits="userSpaceOnUse" gradientTransform="translate(312.968 270.868) scale(62.347 24.2241)">
<stop stop-color="#749993"/>
<stop offset="1" stop-color="#749993" stop-opacity="0"/>
</radialGradient>
<radialGradient id="paint5_radial_19_2538" cx="0" cy="0" r="1" gradientUnits="userSpaceOnUse" gradientTransform="translate(314.812 216.531) scale(62.347 24.2241)">
<stop stop-color="#749993"/>
<stop offset="1" stop-color="#749993" stop-opacity="0"/>
</radialGradient>
<radialGradient id="paint6_radial_19_2538" cx="0" cy="0" r="1" gradientUnits="userSpaceOnUse" gradientTransform="translate(119.534 231.137) scale(62.347 24.2241)">
<stop stop-color="#749993"/>
<stop offset="1" stop-color="#749993" stop-opacity="0"/>
</radialGradient>
<radialGradient id="paint7_radial_19_2538" cx="0" cy="0" r="1" gradientUnits="userSpaceOnUse" gradientTransform="translate(138.493 183.043) scale(28.7737 11.1796)">
<stop stop-color="#749993"/>
<stop offset="1" stop-color="#749993" stop-opacity="0"/>
</radialGradient>
<clipPath id="clip0_19_2538">
<rect width="35.8974" height="35.8974" fill="white" transform="translate(65.3593 364.667)"/>
</clipPath>
</defs>
</svg>
